<?xml version="1.0" encoding="UTF-8"?>
<svg id="Layer_2" xmlns="http://www.w3.org/2000/svg" version="1.1" viewBox="0 0 1953 1624">
  <!-- Generator: Adobe Illustrator 29.2.1, SVG Export Plug-In . SVG Version: 2.1.0 Build 116)  -->
  <defs>
    <style>
      .st0 {
        fill: #fff;
      }
    </style>
  </defs>
  <circle cx="976.5" cy="812" r="786.6"/>
  <g id="WHITE">
    <path class="st0" d="M961.7,434.7l-7.5,47.3c0,.4-.4.8-.9.8-43.5.9-102,24.4-107.5,73.5-5.7,51,37.8,68.2,80.6,70.2.4,0,.8.3.9.8.8,4.7-.5,3.3-3.3,4.8-42,22.8-175.3,21.6-205.6-20.5-17.1-23.8-6.1-45.6-1.9-70.5,0-.4,0-.7-.4-.9-68.2-45.3-147.8-70.5-230.2-69.5-1.1,0-1.3-1.5-.2-1.8l12.5-2.9s0,0,0,0c80.1-10.4,166.4,28.9,245.5,5.7,20.7-6.1,42.1-19.7,62.3-26.7,26.9-9.3,71.8-16.2,100.2-16.3,16.8,0,37.2,5.2,54.6,5.2.6,0,1,.5.9,1h0Z"/>
    <path class="st0" d="M1197.4,1130.1c4.3,4.3,37.5,6.1,42.8-1.8,0,0,0,0,0-.1,5.5-11.3-32.1-15.3-22.5-34.6,7.8-15.6,63.8,10.2,60.3,25.4-2.8,12.3-22.7,5.4-24.3,17.8,0,0,0,.1,0,.2,1.4,28.8,1.6,57.6,2.3,86.5.2,6.7,6.5,41.2-1.3,43.3-12.5,3.4-20.9-11.2-22.7-21.8-3.4-19.7,4.5-52.4,4.1-73.3-.1-6.3-2.5-31.8-8.7-33.3-8.3-2-8.9,8.9-12.6,12.2-6.3,5.7-23,5.4-25,11.2,0,0,0,.1,0,.2-4.8,31.6-4,67.3-10.3,98.3-1.5,7.2-5.9,7.7-12.3,5.2,0,0-.2,0-.2-.1-9.5-7.4,6.9-91.6-4.6-106.3,0,0,0,0-.1-.1-5.1-4.7-31.3-5.2-37.8-3.2-6.9,2.1-5.1,9-7.3,11.2-4.6,4.7-33.1,3.5-39.5.5-3.3-1.6-6.9-11-13.4-14.4-14.7-7.8-48.6-4.9-45.2,17.6,0,.2.1.4.3.5l3.3,3.3c.1.1.3.2.5.3,34.9,3.3,99.6-4.9,99.7,46,0,10.1-5.2,24.9-14.1,30.6-20,12.7-92.9,15-113,2.4-5.3-3.3-11.6-12.9-15.8-14.1-7.9-2.2-13.2,6.4-21.1,4.2-9.1-2.5-14.3-23.5-27.9-24.3-10.9-.7-17.5,10-24.9,14.4-11.7,7-25.4,9.8-39,7.6-21.8-3.4-39-39.1-12.3-41.8,20.6-2.1,13.7,20.1,27.1,22.3,29,4.7,55.1-55.6,41.9-79,0,0,0,0,0,0-2.2-3.1-2.9-3-6.1-1.3-8.3,4.3-22.8,32.6-28.4,35.5-.2.1-.5.1-.7,0l-10.3-3c-.2,0-.4-.2-.5-.4-6.9-10.9,3-17.9,10.3-24.7,11.8-11,39.7-34.2,54.5-17.4,16.4,18.7-4.9,48.8,4.7,69.1,0,.1.2.3.3.4,8.6,6.2,19.5,1.3,28.9,5.4,7.8,3.3,13.5,18.1,20.5,24,22.8,19.3,75.3,28.4,98.9,7.6,9.2-8.2,11.3-22.9,1.2-31-12.1-9.8-67.7-6-87.2-14.2-15.7-6.6-16.5-29.1-8.1-41.4,41.8-60.4,114.2,26.8,161.7-25.7.1-.2.2-.4.2-.6l1.4-193.3c0-.1,0-.2,0-.4,7.1-16,14.5-46.1,36.6-42.3.3,0,.5.2.6.5,8.1,14.5-5.1,27.5-9.7,39.9-12.1,32.7-4.8,131.6-.5,170,.6,5.8,3,27.8,5.5,30.3h0Z"/>
    <path class="st0" d="M590.2,991.4l19.3,18.1s0,0,0,.1c33.3,42-30.5,79.2-52.9,33.8-.2-.3-.1-.7.1-1,7.5-8.9,7.9,3.9,15.6,9.1,11.4,7.7,23.7,5.8,32-5.1,22.8-29.7-33.9-62.6-52.8-47.9-2.3,1.8-3.2,2.4-2.7,5.4,0,.4.3.7.7.7h0c1,.3.9,1.8-.2,1.8-12.9.3-18.3,6.4-17.1,23.3,4.8,68.9,131.1,85.8,98.8,176.7-30.6,86.1-142.4,88.1-203.3,31.7-13.2-12.3-34.6-44.3-36.8-62-1.4-10.9,2.9-41.9,17.8-37.7,5.5,1.5,18.6,20,19,25.7,1.3,19.5-13.9-7.4-19.5,1.4-2.6,4.1,2.8,22.7,4.6,28.3,8.8,26.5,35.1,52.9,62.5,61.7.9.3,1.6-.9.8-1.6-25.9-21.6-41.8-55.6-38.5-89.8,7.9-81.2,116.4-82.7,138.6-7.6,8.1,27.5-15.5,57.7-43.4,60.7-10.8,1.2-39-1.6-44.6-12.3-2-3.8-1-9.3,2.6-10,2.5-.4,12.9,8.7,19.9,9.7,38.4,6,64-14.5,51-53.5-7.4-22.2-35.6-40.4-58.6-40.3-15.6,0-42.4,18-49.2,32.4-34.7,73.8,59.5,142.2,123.1,98.2,5.4-3.8,26-28,28.1-33.6,24.6-66.1-61.3-104.5-100.5-138-26.3-22.4-23.1-44.9,0-68.7,76.5-78.8,203.6,21.6,140.6,96.1-7.8,9.3-16.1,16.3-28.5,8.9-13.5-8.1-2.5-30.8,6.3-26.2,12.5,6.4-6.9,16.5,5.6,23.3.3.2.7.1,1-.1,44.5-36.4,17-111.5-38.9-113.2-.8,0-1.3,1-.6,1.6h0Z"/>
    <path class="st0" d="M807.7,1236.1c-20.9,17.7-49.9,14.2-65.9-7.8-5.5-7.6-6.3-16.2-12.7-22.6-.4-.4-1.2-.3-1.4.2-7.6,14.2-20.6,37-37.1,40.4-48.7,10.1-62.1-58.6-32.1-85.4.3-.3.8-.3,1.1,0,14.1,9.2,3.2,20.8,3,35.3-.3,16.6,7.7,36.1,27.5,29.9,11.8-3.7,29.9-42.6,29.7-54.4-.1-5.4-2.9-10.9-2.8-17.4.3-16.6,14.4-29.1,30.8-20.7,21.8,11.2.6,41.7-.9,57.7-3.8,39.2,35.5,57.3,57.4,22.7,20.8-32.9,25.3-97.3,14.2-133.8-7-23.1-28.2-22.1-47.7-31.4-57.6-27.3-169.2-89.7-157.2-166.3,2.3-14.9,20.7-26.8,35.4-26,31.6,1.9,84.4,31.9,107.9,53,23.8,21.4,55.5,68.2,67.9,97.7,8.6,20.4,9.2,42,27.3,56.7,28.1,23,106.9,24.3,138.9,8,2.8-1.4,14.4-15,15.6-6.6,3.6,25.4-77.8,26.9-92.7,25.9-11.8-.9-63.7-14-68.2-11.2-3,1.9-1.7,3.8-1.4,6.3,1.4,11.4,6.4,27,6.5,38.4.3,32.4-17.7,90.1-43,111.5h0ZM772.5,951.7c-25.5-30.8-88.7-85-130.7-77.9-18,3-20.1,22.7-15.5,37.5,12.2,39.2,84.9,90.7,120.2,112.2,22.4,13.7,75.8,49.1,62.8-6-5-21.3-22.8-49-36.7-65.8Z"/>
    <path class="st0" d="M833.1,662c8.3,21.4,24.1,42,43.9,53.4.3.2.5.6.4.9-11.9,70.8-47.9,131.9-97.1,182.9-.7.7-1.9-.1-1.5-1,15.4-30.2,37.8-57.1,46.7-90.4.1-.4-.1-.9-.5-1.1-67.8-30.2-116.1-104.2-117.9-178.6,0-.7.8-1.2,1.4-.8,36.6,22.1,81.1,33.1,123.7,34.1.4,0,.7.2.8.6h0Z"/>
    <path class="st0" d="M1001.6,729c14.5,90.7,64.4,171.8,136,228.1.9.7,0,2-1,1.5-60-30.8-104.8-84.2-140.9-140.4-.2-.4-.7-.5-1.1-.3-34.1,16-69.5,10-106,11.8-.3,0-.5.2-.7.4-24.9,36-61.2,61.7-97.7,84.7-.8.5-1.7-.3-1.3-1.1,3-6.7,24-25.4,27-28.9,36.2-43.5,63.8-102.1,71.6-158.3,0-.6.7-.9,1.2-.7,38.1,14.2,73.2,20.5,111.6,2.6.5-.3,1.2,0,1.3.7h0Z"/>
    <path class="st0" d="M1438.8,1144.2v12.4c0,.5-.4.9-.9.9-18-.7-34.1,1.6-50.6,9-7.4,3.3-41.3,23.5-45.8,28.4-2.9,3.2-4.4,4.7-3.8,9.2,0,.4.4.8.9.8,32,1.6,63.3,7.3,94.3,15,0,0,.2,0,.3,0,11.6-.9,12.5-19.4,31.9-17.5,14,1.4,11.2,40.7,39.7,9.9,12.4-13.4,25.5-44.1,19.5-62.1-8-24-32.3,23.8-41.4,27.3-.3.1-.6,0-.8,0l-5.1-3.1c-.4-.2-.5-.7-.4-1.2,11.7-24.9,31.8-47.9,62.2-41.9,20.8,4.1,3,30.4,2.5,40.5-.3,5.9,3.9,12.8,4.2,19.5.9,22.2-7.5,44,15.9,55.4.2,0,.3.2.4.4,5.3,10.3-22.4,8.5-29.6,4.5-12.4-7-7.9-28.3-17.6-29.5-10.8-1.4-13.3,8.6-21.7,13-24.3,12.7-33.5-4.5-52.8-5.3-25.1-1.1-44.7-1.2-70.7-5.7-19.3-3.3-44.4-17.2-63.6-5.4-17.4,10.7-7.1,31.6-10.6,48.8-.4,2-12.8,25.1-14.5,27.5-3.2,4.6-10.3,6.2-13.5,1.6-4.4-6.4,12.8-59.7,15-71.7,13.2-70.9-5.9-146.8-8.8-218.7-.6-14.1-1.8-39,0-52.1,2.3-17,18.8-13.8,22.2,2.8,7.2,35.2,5,75.3,10.2,110.9,0,0,0,0,0,.1l1.1,119.7c0,.2,0,.4.1.5,1.4,1.9,5.7,4,7.9,4.3,6.9,1,40.7-24.4,50.9-29.7,22.3-11.5,46.7-20.4,72.2-19.1.5,0,.9.4.9.9h0Z"/>
    <path class="st0" d="M1220.5,386.9l-67.1,21.7c0,0-.1,0-.2,0-43,3.6-85.9,4-128.8-1.1-.4,0-.9.2-1,.7l-3.4,12.4c-.1.4,0,.8.4,1,17,10.3,35.7,22,50.3,35.4,14.1,12.9,22.1,34.2,40.6,33.8.9,0,1.3,1.2.5,1.7l-60.1,37.1c0,0-.2,0-.3.1-6.7,1.5-16.3-12.7-21.7-17-19-15.1-37.6-24.3-62.1-27.2-.5,0-.9-.5-.8-1,2.4-16.9,10.2-33,11.9-50,3.7-36.6-4.9-76.9-23.7-108.4-.4-.7.3-1.6,1.1-1.3,5.4,1.9,19,15,22.1,16.9,41.2,26.6,99,46.6,148,49.8,31.6,2.1,62.6-2.9,93.8-6.4,1.1-.1,1.4,1.4.4,1.8h0Z"/>
    <path class="st0" d="M1003,625.3c-.6-.5-.4-1.5.4-1.6,37.7-5.6,80.7-3.3,111.6,21.5,27.5,22.1,10.7,50.2-3.5,75.3-11.9,20.9-31.1,43.8-49.4,59.3-19.3,16.4-21.8,21.8-33.5-3.7-7.6-16.6-11.3-35.9-13.8-54,0-.4.2-.8.5-.9,30.4-14.2,46.1-59.6,17.1-82.3-9.7-7.6-20.7-6.8-29.3-13.5h0Z"/>
    <path class="st0" d="M1120,506.1c-5.1,26.1,15.6,50.1,16.2,77.1,0,.6.6,1.1,1.2.8,26.7-9.7,52.3-24.6,71.8-45.3,7.1-7.5,12.7-17.7,19.2-25.3,2.2-2.6,2.7-6.2,6.8-5.8.6,0,1,.7.8,1.2-20.2,53.6-61.4,94.6-99.3,136.2-.3.3-.7.4-1.1.2-19-9.5-37.4-23.3-59-26.2-.5,0-.8-.5-.8-1,2.2-28.7-7.2-54.2-19.9-79.2,0-.2-.1-.4,0-.6,1-4.1,17.6-14.4,22.1-16.9,5.4-3,34.8-17.2,41.2-16.3.5,0,.9.6.8,1.1h0Z"/>
    <path class="st0" d="M1031.2,556.7c-.1.3-.4.5-.7.6-2.9.5-2.7.3-4.6-1.7-8.4-8.8-15.7-20.1-25.8-28-5.8-4.5-35.6-22.9-30.5-4.2,1.7,6.1,21.5,17.9,22,29.6,0,.8-.8,1.2-1.5.8-6.5-4.8-12.6-10-19.9-13.5-6.3-3-28.5-7.1-27.9-13.5.2-2,19.4-32.5,20.9-33.8,2.9-2.6,2.6-2.1,6.1-1.5,26.7,4.8,50.2,23.6,70.1,40.6.3.2.4.6.3,1l-8.4,23.7h0Z"/>
    <path class="st0" d="M1319.2,891.8c4.2,0,10.6,5.6,10.9,10,.2,4-6.7,41.8-8.4,43.5-6.3,6.4-17.9-1-18-8.1-.2-8.2,5.5-45.5,15.5-45.4h0Z"/>
  </g>
</svg>